<svg id="Layer_3" enable-background="new 0 0 64 64" height="512" viewBox="0 0 64 64" width="512" xmlns="http://www.w3.org/2000/svg"><path d="m60.67 18-4.705-11.427c-1.395-3.385-4.661-5.573-8.322-5.573h-16.29c-3.065 0-5.891 1.537-7.557 4.111l-8.432 13.03-13.638 3.897c-.43.123-.726.516-.726.962v13c0 .553.447 1 1 1h5.059c.499 4.493 4.316 8 8.941 8s8.442-3.507 8.941-8h14.059v-2h-14.059c-.499-4.493-4.316-8-8.941-8s-8.442 3.507-8.941 8h-4.059v-6h3c.553 0 1-.447 1-1v-5.389l9.274-2.649c.233-.066.434-.216.565-.419l8.636-13.346c1.296-2.002 3.494-3.197 5.878-3.197h16.29c2.848 0 5.389 1.701 6.473 4.335l4.96 12.046c.153.375.519.619.924.619h3v-2zm-44.67 11c3.859 0 7 3.141 7 7s-3.141 7-7 7-7-3.141-7-7 3.141-7 7-7zm-11-2h-2v-3.246l2-.571z"/><path d="m16 41c2.757 0 5-2.243 5-5s-2.243-5-5-5-5 2.243-5 5 2.243 5 5 5zm0-8c1.654 0 3 1.346 3 3s-1.346 3-3 3-3-1.346-3-3 1.346-3 3-3z"/><path d="m51.436 6.846c-.467-1.121-1.554-1.846-2.769-1.846h-17.597c-1.005 0-1.938.499-2.496 1.336l-7.406 11.109c-.204.307-.224.701-.05 1.026s.513.529.882.529h33c.334 0 .646-.167.832-.445s.22-.631.091-.939zm-21.198.599c.186-.279.497-.445.832-.445h6.93v10h-14.132zm9.762 9.555v-10h8.667c.404 0 .767.241.923.615l3.91 9.385z"/><path d="m36 21h4v2h-4z"/><path d="m52 21h4v2h-4z"/><path d="m24 56c-2.206 0-4-1.794-4-4 0-.553-.447-1-1-1s-1 .447-1 1c0 2.206-1.794 4-4 4-.553 0-1 .447-1 1s.447 1 1 1c2.206 0 4 1.794 4 4 0 .553.447 1 1 1s1-.447 1-1c0-2.206 1.794-4 4-4 .553 0 1-.447 1-1s-.447-1-1-1zm-5 2.687c-.444-.668-1.019-1.242-1.687-1.687.668-.444 1.242-1.019 1.687-1.687.444.668 1.019 1.242 1.687 1.687-.668.444-1.243 1.019-1.687 1.687z"/><path d="m12 49c-2.206 0-4-1.794-4-4 0-.553-.447-1-1-1s-1 .447-1 1c0 2.206-1.794 4-4 4-.553 0-1 .447-1 1s.447 1 1 1c2.206 0 4 1.794 4 4 0 .553.447 1 1 1s1-.447 1-1c0-2.206 1.794-4 4-4 .553 0 1-.447 1-1s-.447-1-1-1zm-5 2.687c-.444-.668-1.019-1.243-1.687-1.687.668-.444 1.243-1.019 1.687-1.687.444.668 1.019 1.243 1.687 1.687-.668.444-1.243 1.019-1.687 1.687z"/><path d="m2 8c2.206 0 4 1.794 4 4 0 .553.447 1 1 1s1-.447 1-1c0-2.206 1.794-4 4-4 .553 0 1-.447 1-1s-.447-1-1-1c-2.206 0-4-1.794-4-4 0-.553-.447-1-1-1s-1 .447-1 1c0 2.206-1.794 4-4 4-.553 0-1 .447-1 1s.447 1 1 1zm5-2.687c.444.668 1.019 1.243 1.687 1.687-.668.444-1.243 1.019-1.687 1.687-.444-.668-1.019-1.243-1.687-1.687.668-.444 1.243-1.019 1.687-1.687z"/><path d="m62.53 38.152-7.53-4.706v-7.446c0-.553-.447-1-1-1h-6c-.553 0-1 .447-1 1v7.446l-7.53 4.706c-.292.183-.47.503-.47.848v6c0 .266.105.52.293.707l1.707 1.707v6.172l-1.707 1.707c-.188.187-.293.441-.293.707v6c0 .553.447 1 1 1h22c.553 0 1-.447 1-1v-6c0-.266-.105-.52-.293-.707l-1.707-1.707v-6.172l1.707-1.707c.188-.187.293-.441.293-.707v-6c0-.345-.178-.665-.47-.848zm-14.243-3.152h5.426l6.4 4h-18.226zm.713-8h4v6h-4zm10.293 19.293c-.188.187-.293.441-.293.707v7c0 .266.105.52.293.707l1.707 1.707v4.586h-20v-4.586l1.707-1.707c.188-.187.293-.441.293-.707v-7c0-.266-.105-.52-.293-.707l-1.707-1.707v-3.586h20v3.586z"/><path d="m56 48c-2.206 0-4-1.794-4-4 0-.553-.447-1-1-1s-1 .447-1 1c0 2.206-1.794 4-4 4-.553 0-1 .447-1 1s.447 1 1 1c2.206 0 4 1.794 4 4 0 .553.447 1 1 1s1-.447 1-1c0-2.206 1.794-4 4-4 .553 0 1-.447 1-1s-.447-1-1-1zm-5 2.687c-.444-.668-1.019-1.242-1.687-1.687.668-.444 1.242-1.019 1.687-1.687.444.668 1.019 1.242 1.687 1.687-.668.444-1.243 1.019-1.687 1.687z"/></svg>