<svg viewBox="1 0 511.99973 511" xmlns="http://www.w3.org/2000/svg"><path d="m188.375 492.152344c-2.625 0-5.203125 1.070312-7.0625 2.929687s-2.929688 4.4375-2.929688 7.066407c0 2.625 1.070313 5.203124 2.929688 7.0625 1.859375 1.859374 4.4375 2.929687 7.0625 2.929687 2.628906 0 5.207031-1.070313 7.066406-2.929687 1.859375-1.859376 2.929688-4.4375 2.929688-7.0625 0-2.628907-1.070313-5.207032-2.929688-7.066407s-4.4375-2.929687-7.066406-2.929687zm0 0"/><path d="m502.007812 210.679688c-2.628906 0-5.207031 1.070312-7.066406 2.929687s-2.925781 4.4375-2.925781 7.066406c0 2.636719 1.066406 5.203125 2.925781 7.0625s4.4375 2.929688 7.066406 2.929688c2.628907 0 5.207032-1.070313 7.0625-2.929688 1.859376-1.859375 2.929688-4.425781 2.929688-7.0625 0-2.628906-1.070312-5.207031-2.929688-7.066406-1.855468-1.859375-4.433593-2.929687-7.0625-2.929687zm0 0"/><path d="m425.050781 129.585938c-12.027343-12.023438-31.589843-12.019532-43.613281 0l-5.277344 5.277343-96.652344-96.652343c-8.078124-8.078126-18.820312-12.527344-30.242187-12.527344s-22.164063 4.449218-30.242187 12.527344l-103.363282 103.359374-45.019531-45.019531c-5.304687-5.304687-12.359375-8.226562-19.863281-8.226562-7.507813 0-14.5625 2.921875-19.867188 8.226562l-27.625 27.625c-3.902344 3.902344-3.902344 10.230469 0 14.132813s10.230469 3.902344 14.132813 0l27.625-27.625c3.160156-3.160156 8.308593-3.160156 11.46875 0l45.019531 45.019531-98.605469 98.605469c-3.902343 3.902344-3.902343 10.226562 0 14.132812 1.953125 1.949219 4.507813 2.925782 7.066407 2.925782 2.558593 0 5.117187-.976563 7.066406-2.925782l216.097656-216.097656c4.300781-4.304688 10.023438-6.675781 16.109375-6.675781s11.804687 2.371093 16.109375 6.675781l96.652344 96.652344-75.183594 75.183594-28.066406-24.871094c16.132812-5.144532 27.851562-20.273438 27.851562-38.089844 0-22.039062-17.933594-39.96875-39.972656-39.96875s-39.972656 17.929688-39.972656 39.96875c0 .492188.019531.980469.039062 1.46875-14.5625-2.394531-30.035156 1.996094-41.242187 13.203125l-66.90625 66.90625c-.023438.023437-.039063.046875-.0625.070313-.261719.269531-.511719.550781-.746094.851562-.027344.035156-.058594.070312-.085937.101562-.007813.015626-.019532.027344-.027344.039063-4.132813 5.496094-6.625 11.988281-7.398438 18.992187h-25.636718c-5.519532 0-9.992188 4.472657-9.992188 9.992188v10c0 18.015625 14.660156 32.675781 32.679688 32.675781h18.640624l-3.304687 14.257813c-3.535156-.417969-7.132813-.640625-10.78125-.640625-50.453125 0-91.5 41.046875-91.5 91.5 0 28.914062 13.484375 54.734375 34.488281 71.515625h-24.496094c-5.519531 0-9.992187 4.476562-9.992187 9.992187 0 5.519531 4.472656 9.992188 9.992187 9.992188h81.507813c43.332031 0 79.726563-30.277344 89.136719-70.789063 1.828125 2.007813 4.453125 3.273438 7.382812 3.273438h54.179688c5.164062 19.003906 16.316406 35.566406 31.292968 47.53125h-45.796874c-5.519532 0-9.992188 4.476562-9.992188 9.992187 0 5.519531 4.472656 9.992188 9.992188 9.992188h102.804687c50.453125 0 91.5-41.042969 91.5-91.5 0-50.453125-41.046875-91.5-91.5-91.5-5.117187 0-10.136719.429687-15.027344 1.242187l-.253906-.90625c-4.578125-16.261718-6.898437-33.074218-6.898437-49.96875v-21.484375h17.617187c5.441406 0 9.867187 4.425781 9.867187 9.867188 0 5.4375-4.425781 9.867187-9.867187 9.867187-5.519531 0-9.992187 4.472656-9.992187 9.992188 0 5.515625 4.472656 9.992187 9.992187 9.992187 16.460937 0 29.851563-13.390625 29.851563-29.851562 0-16.460938-13.390626-29.855469-29.851563-29.855469h-23.820313l-.648437-.574219 93.742187-93.738281c4.226563-4.230469 11.113282-4.230469 15.347657 0l58.207031 58.207031c3.902344 3.902344 10.230469 3.902344 14.132812 0 3.902344-3.902343 3.902344-10.230469 0-14.132812zm-229.53125 262.371093-14.464843-63.058593c-.621094-2.707032-2.339844-5.03125-4.742188-6.421876l-52.898438-30.542968c-6.3125-3.644532-11.246093-10.867188-12.871093-18.84375-.839844-4.105469-.742188-8.007813.242187-11.4375l51.984375 14.351562 29.664063 29.664063c7.320312 7.320312 12.179687 16.5625 14.058594 26.738281l9.585937 59.550781zm-77.953125-38.03125c23.773438 9.191407 41.441406 30.730469 45.09375 56.722657h-58.230468zm89-62.390625-24.464844-24.460937 31.539063-31.542969 75.328125 54.566406c.09375 1.816406.21875 3.628906.363281 5.4375h-79.058593c-1.179688-1.375-2.417969-2.707031-3.707032-4zm40.089844-150.300781c11.019531 0 19.984375 8.964844 19.984375 19.988281 0 11.019532-8.964844 19.984375-19.984375 19.984375s-19.988281-8.964843-19.988281-19.984375c0-11.023437 8.96875-19.988281 19.988281-19.988281zm-67.042969 48.792969c10.671875-10.675782 28.039063-10.675782 38.710938-.003906l1.042969 1.042968c.140624.140625.289062.28125.4375.414063l68.886718 61.042969v12.695312l-70.226562-50.871094c-1.761719-1.273437-3.816406-1.898437-5.859375-1.898437-2.574219 0-5.136719.992187-7.070313 2.925781l-40.515625 40.519531-9-2.484375-31.179687-8.609375zm-105 92.816406 17.898438-.003906c1.507812 4.546875 3.640625 8.835937 6.296875 12.695312h-11.503906c-7 0-12.691407-5.691406-12.691407-12.691406zm51.589844 33.777344 36.34375 20.988281 8.570313 37.347656c-10.875-18.792969-28.238282-33.375-49.003907-40.671875zm-34.34375 175.53125c-39.433594 0-71.515625-32.078125-71.515625-71.511719s32.082031-71.515625 71.515625-71.515625c2.101563 0 4.179687.113281 6.234375.289062l-15.972656 68.972657c-.6875 2.96875.019531 6.085937 1.914062 8.472656 1.894532 2.386719 4.773438 3.773437 7.820313 3.773437h70.804687c-4.878906 34.71875-34.761718 61.519532-70.800781 61.519532zm106.511719-67.511719v-12.699219h21.289062c1.238282 0 2.445313.117188 3.625.324219 1.285156.699219 2.726563 1.117187 4.238282 1.199219 5.144531 2.070312 9.300781 6.101562 11.519531 11.175781zm132.488281-75.515625c39.433594 0 71.515625 32.082031 71.515625 71.515625 0 39.429687-32.082031 71.511719-71.515625 71.511719-34.558594 0-63.46875-24.644532-70.085937-57.28125 0-.082032.011718-.160156.011718-.242188v-1.550781c0-3.664063-.488281-7.214844-1.390625-10.597656-.019531-.613281-.046875-1.226563-.046875-1.84375 0-29.1875 17.585938-54.332031 42.710938-65.433594l19.183594 68.144531c1.238281 4.40625 5.25 7.285156 9.613281 7.285156.894531 0 1.808593-.121093 2.710937-.375 5.3125-1.496093 8.410156-7.015624 6.914063-12.328124l-19.183594-68.148438c3.128906-.417969 6.320313-.65625 9.5625-.65625zm-88.8125 49.484375c-1.628906-1.0625-3.335937-2.011719-5.113281-2.835937l-10.726563-66.652344c-.011719-.070313-.023437-.140625-.035156-.210938-.84375-4.617187-2.136719-9.09375-3.835937-13.386718h69.5625c1.164062 6.515624 2.644531 12.980468 4.441406 19.367187l.257812.914063c-26.886718 10.894531-47.457031 34.21875-54.550781 62.804687zm0 0"/><path d="m390.449219 101.773438 88.964843.046874c17.96875 0 32.585938-14.621093 32.585938-32.585937 0-17.96875-14.617188-32.589844-32.585938-32.589844-.421874 0-.839843.007813-1.257812.023438-6.265625-20.988281-25.773438-36.167969-48.546875-36.167969-13.355469 0-25.957031 5.148438-35.484375 14.503906-7.601562 7.460938-12.566406 16.925782-14.390625 27.21875-11.722656 4.386719-20.027344 15.742188-20.027344 28.804688 0 16.953125 13.792969 30.746094 30.742188 30.746094zm-.785157-41.46875c5.152344-.367188 9.175782-4.605469 9.277344-9.769532.328125-16.570312 14.085938-30.050781 30.667969-30.050781 16.164063 0 29.609375 12.625 30.609375 28.742187.203125 3.269532 1.996094 6.234376 4.800781 7.929688 2.804688 1.695312 6.265625 1.910156 9.253907.570312 1.625-.726562 3.355468-1.097656 5.140624-1.097656 6.945313 0 12.601563 5.65625 12.601563 12.601563 0 6.949219-5.65625 12.601562-12.597656 12.601562l-88.960938-.046875c-.003906 0-.003906 0-.003906 0-5.933594 0-10.757813-4.824218-10.757813-10.757812-.003906-5.613282 4.378907-10.324219 9.96875-10.722656zm0 0"/></svg>