<svg id="Capa_1" enable-background="new 0 0 512 512" height="512" viewBox="0 0 512 512" width="512" xmlns="http://www.w3.org/2000/svg"><path d="m483 208.271c0-.401-.016-.805-.02-1.207 17.978-19.002 29.02-44.631 29.02-72.793 0-58.449-47.551-106-106-106-46.989 0-86.927 30.736-100.785 73.156-21.048 11.21-38.008 28.249-49.193 48.572-20.618-37.364-60.413-62.728-106.022-62.728-66.72 0-121 54.28-121 121 0 22.892 8.567 48.625 25.539 77h-54.539v30h74.881c16.932 22.481 38.498 46.392 64.705 71.671 53.175 51.293 105.474 88.942 107.674 90.52l8.74 6.267 8.74-6.267c2.2-1.578 54.499-39.226 107.674-90.52 26.206-25.279 47.773-49.19 64.705-71.671h74.881v-30h-54.539c16.972-28.375 25.539-54.107 25.539-77zm-61.145 77h-33.261l-12.868-49.412c9.597 2.865 19.757 4.412 30.273 4.412 15.506 0 30.246-3.347 43.534-9.357-4.639 16.258-13.934 34.476-27.678 54.357zm-15.855-227c41.907 0 76 34.093 76 76s-34.093 76-76 76-76-34.093-76-76 34.093-76 76-76zm-347 150c0-50.178 40.822-91 91-91s91 40.822 91 91h30c0-25.699 10.951-49.83 29.249-66.806 1.783 26.466 13.317 50.3 31.038 67.926l-73.971 120.974-58.289-116.578-70.314 71.485h-38.568c-20.538-29.71-31.145-55.708-31.145-77.001zm292.832 156.842c-39.134 37.78-78.738 68.623-95.832 81.495-17.094-12.872-56.698-43.714-95.832-81.495-17.992-17.369-33.658-34.018-46.962-49.842h28.081l49.686-50.515 63.711 127.422 91.698-149.963 19.025 73.056h33.389c-13.306 15.824-28.972 32.473-46.964 49.842z"/><path d="m391 179.271h30v-30h30v-30h-30v-30h-30v30h-30v30h30z"/></svg>