<?xml version="1.0" encoding="iso-8859-1"?>
<!-- Generator: Adobe Illustrator 19.0.0, SVG Export Plug-In . SVG Version: 6.00 Build 0)  -->
<svg version="1.1" id="Layer_1" xmlns="http://www.w3.org/2000/svg" xmlns:xlink="http://www.w3.org/1999/xlink" x="0px" y="0px"
	 viewBox="0 0 511.984 511.984" style="enable-background:new 0 0 511.984 511.984;" xml:space="preserve">
<g>
	<g>
		<g>
			<path d="M501.317,277.329c5.896,0,10.667-4.771,10.667-10.667v-53.333c0-23.531-19.135-42.667-42.667-42.667h-80.288
				c-3.063-6.785-5.046-13.863-5.046-21.333c0-19.313,10.719-37.167,27.979-46.594c2.51-1.375,4.375-3.708,5.146-6.469
				c0.781-2.75,0.417-5.708-1-8.198l-25.99-45.396c-5.677-9.896-14.844-16.969-25.813-19.906
				c-10.917-2.917-22.333-1.385-32.104,4.302L21.14,208.162c-20.188,11.75-27.135,37.854-15.5,58.167l26.875,46.979
				c1.427,2.5,3.802,4.313,6.583,5.031c2.771,0.719,5.729,0.292,8.188-1.188c8.604-5.188,17.813-7.823,27.365-7.823
				c23.284,0,43.624,15.34,50.548,37.53c-6.905,21.46-26.824,37.137-50.548,37.137c-5.896,0-10.667,4.771-10.667,10.667v53.333
				c0,23.531,19.135,42.667,42.667,42.667h362.667c23.531,0,42.667-19.135,42.667-42.667v-53.333
				c0-5.896-4.771-10.667-10.667-10.667c-29.406,0-53.333-23.927-53.333-53.333C447.984,301.256,471.911,277.329,501.317,277.329z
				 M342.942,45.506c4.823-2.813,10.49-3.594,15.844-2.135c5.448,1.458,9.99,4.979,12.813,9.906l20.969,36.625
				c-18.677,14.01-29.917,35.938-29.917,59.427c0,7.234,1.191,14.406,3.298,21.333H127.955L342.942,45.506z M74.65,287.996
				c-9.76,0-19.5,2.021-28.656,5.917l-21.833-38.177c-5.844-10.188-2.375-23.26,7.708-29.135l32.698-19.035
				c-0.26,1.904-0.583,3.79-0.583,5.764v53.333c0,5.896,4.771,10.667,10.667,10.667c19.626,0,36.622,10.777,45.883,26.609
				C107.761,293.889,91.76,287.996,74.65,287.996z M426.65,330.662c0,37.552,27.865,68.719,64,73.906v43.427
				c0,11.76-9.573,21.333-21.333,21.333h-256v-18.667c0-5.896-4.771-10.667-10.667-10.667c-5.896,0-10.667,4.771-10.667,10.667
				v18.667H106.65c-11.76,0-21.333-9.573-21.333-21.333v-43.427c36.135-5.188,64-36.354,64-73.906s-27.865-68.719-64-73.906v-43.427
				c0-11.76,9.573-21.333,21.333-21.333h85.333v24c0,5.896,4.771,10.667,10.667,10.667c5.896,0,10.667-4.771,10.667-10.667v-24h256
				c11.76,0,21.333,9.573,21.333,21.333v43.427C454.515,261.943,426.65,293.11,426.65,330.662z"/>
			<path d="M202.65,269.329c-5.896,0-10.667,4.771-10.667,10.667v21.333c0,5.896,4.771,10.667,10.667,10.667
				c5.896,0,10.667-4.771,10.667-10.667v-21.333C213.317,274.1,208.546,269.329,202.65,269.329z"/>
			<path d="M202.65,354.662c-5.896,0-10.667,4.771-10.667,10.667v21.333c0,5.896,4.771,10.667,10.667,10.667
				c5.896,0,10.667-4.771,10.667-10.667v-21.333C213.317,359.433,208.546,354.662,202.65,354.662z"/>
			<path d="M401.046,236.798c-4.698-3.51-11.396-2.573-14.927,2.135l-128,170.667c-3.542,4.708-2.583,11.396,2.135,14.927
				c1.917,1.438,4.156,2.135,6.385,2.135c3.25,0,6.448-1.469,8.542-4.271l128-170.667
				C406.723,247.016,405.765,240.329,401.046,236.798z"/>
			<path d="M287.984,319.996c17.948,0,32-18.74,32-42.667c0-23.927-14.052-42.667-32-42.667s-32,18.74-32,42.667
				C255.984,301.256,270.036,319.996,287.984,319.996z M287.984,255.996c4.354,0,10.667,8.313,10.667,21.333
				c0,13.021-6.313,21.333-10.667,21.333s-10.667-8.313-10.667-21.333C277.317,264.308,283.63,255.996,287.984,255.996z"/>
			<path d="M373.317,341.329c-17.948,0-32,18.74-32,42.667s14.052,42.667,32,42.667s32-18.74,32-42.667
				S391.265,341.329,373.317,341.329z M373.317,405.329c-4.354,0-10.667-8.313-10.667-21.333s6.313-21.333,10.667-21.333
				s10.667,8.313,10.667,21.333S377.671,405.329,373.317,405.329z"/>
		</g>
	</g>
</g>
<g>
</g>
<g>
</g>
<g>
</g>
<g>
</g>
<g>
</g>
<g>
</g>
<g>
</g>
<g>
</g>
<g>
</g>
<g>
</g>
<g>
</g>
<g>
</g>
<g>
</g>
<g>
</g>
<g>
</g>
</svg>
