<svg height="512pt" viewBox="-32 0 512 512.0019" width="512pt" xmlns="http://www.w3.org/2000/svg"><path d="m156.703125 195.5h-.230469c-26.003906 0-50.273437 10.363281-68.199218 28.289062-17.664063 17.664063-28.289063 41.808594-28.289063 68.199219v.140625c-.03125 3.582032 1.519531 7.132813 4.136719 9.492188 5.203125 4.75 13.226562 4.65625 18.160156-.34375l83.472656-83.476563c2.429688-2.410156 3.867188-5.851562 3.839844-9.210937-.023438-7.210938-5.777344-13.089844-12.890625-13.089844zm-81.582031 91.730469c1.148437-19.890625 9.578125-38.652344 23.75-52.832031 14.191406-14.179688 32.949218-22.609376 52.839844-23.757813zm0 0"/><path d="m224.511719 223.640625-.011719-.011719c-9.703125-9.664062-25.722656-9.726562-35.667969.222656l-100.5 100.507813c-9.902343 9.859375-9.949219 25.929687-.191406 35.691406.042969.050781.082031.089844.132813.128907.039062.039062.078124.089843.128906.128906 0 .011718 0 .011718.007812.011718 9.773438 9.769532 25.796875 9.707032 35.691406-.1875l100.511719-100.5c2.429688-2.433593 4.308594-5.261718 5.589844-8.433593 3.644531-8.921875 2.144531-19.726563-5.691406-27.558594zm-10.511719 25.378906-100.5 100.511719c-3.941406 3.925781-10.425781 4.199219-14.5.167969l-.019531-.019531c-.070313-.070313-.140625-.140626-.230469-.21875-3.992188-4.039063-3.769531-10.542969.183594-14.492188l100.507812-100.507812c3.929688-3.933594 10.425782-4.222657 14.5-.171876 4.324219 4.132813 4.03125 10.761719.058594 14.730469zm0 0"/><path d="m146.832031 384.339844c2.351563 2.589844 5.867188 4.140625 9.417969 4.148437.03125 0 .050781 0 .082031-.007812h.140625c25.832032 0 50.121094-10.210938 68.199219-28.292969 18.023437-18 28.289063-42.351562 28.289063-68.199219v-.128906c.019531-3.589844-1.527344-7.140625-4.148438-9.5-5.191406-4.761719-13.230469-4.652344-18.152344.351563l-83.457031 83.457031c-5.039063 4.933593-5.101563 13-.371094 18.171875zm90.988281-87.578125c-1.148437 19.878906-9.578124 38.636719-23.757812 52.828125-14.179688 14.171875-32.941406 22.609375-52.832031 23.761718zm0 0"/><path d="m434.011719 115.113281c-.003907 0-.003907 0 0 0-2.289063-3.65625-6.0625-6.035156-10.347657-6.519531-4.273437-.488281-8.484374.980469-11.53125 4.027344-2.628906 2.628906-6.871093 2.859375-9.453124.511718-2.835938-2.582031-2.917969-6.957031-.238282-9.640624l3.78125-3.777344c5.589844-5.59375 5.867188-14.617188.632813-20.542969l-2.570313-2.90625c-2.730468-3.085937-6.65625-4.929687-10.777344-5.058594-4.121093-.101562-8.152343 1.472657-11.066406 4.386719l-3.949218 3.949219c-2.640626 2.636719-7.015626 2.636719-9.636719-.238281-2.351563-2.582032-2.121094-6.824219.511719-9.453126l3.664062-3.664062c2.914062-2.914062 4.511719-6.945312 4.386719-11.0625s-1.964844-8.046875-5.050781-10.777344l-2.90625-2.574218c-5.929688-5.242188-14.953126-4.964844-20.546876.628906l-3.472656 3.476562c-2.710937 2.703125-7.015625 2.890625-9.605468.410156-2.742188-2.621093-2.722657-6.925781-.089844-9.539062 3.089844-3.054688 4.578125-7.3125 4.085937-11.675781-.503906-4.464844-2.976562-8.382813-6.785156-10.75-22.636719-14.066407-38.816406-17.792969-48.105469-11.089844l-23.089844 16.679687c-.007812.007813-.015624.015626-.023437.023438l-195.867187 141.488281c-.050782.039063-.109376.078125-.171876.128907-41.589843 30.089843-65.8281245 77.644531-65.789062 128.554687 0 19.511719 3.53125 38.59375 10.5 56.710937 1.457031 3.761719 5.753906 5.8125 9.691406 4.300782 3.886719-1.496094 5.800782-5.820313 4.308594-9.691406-6.308594-16.390626-9.5-33.648438-9.5-51.320313.011719-46.632813 21.789062-89.105469 59.75-116.527344l190.707031-137.765625 147.351563 147.355469c-13.636719 18.871094-61.332032 84.898437-97.496094 134.96875-22.070312 30.550781-39.25 54.34375-40.273438 55.742187-26.867187 37.199219-69.109374 59.5625-116.476562 59.585938-36.480469-.011719-71.230469-13.710938-97.839844-38.582031-9-8.414063-16.871094-17.851563-23.394531-28.074219-2.242187-3.507812-6.871094-4.5-10.355469-2.277344-3.507812 2.238282-4.519531 6.863282-2.28125 10.359375 7.179688 11.261719 15.859375 21.671875 25.789063 30.953125 29.398437 27.488282 67.769531 42.628906 108.058593 42.621094h.082032c19.769531 0 39.3125-3.648438 57.871094-10.890625l54.558593 54.570313.019531.023437c6.351563 6.320313 13.769532 11.25 22.03125 14.671875 8.300782 3.417969 17.089844 5.15625 26.128907 5.15625h.03125c9.21875 0 18.167969-1.808594 26.609375-5.390625 8.148437-3.449219 15.46875-8.386719 21.738281-14.667969 11.351563-11.351562 18.378906-26.363281 19.800781-42.273437.351563-4.101563-2.652344-7.753907-6.820312-8.128907-4.101563-.375-7.753906 2.671876-8.128906 6.808594-1.101563 12.402344-6.589844 24.113282-15.449219 32.984375-10.121094 10.097657-23.53125 15.667969-37.761719 15.667969-14.199219-.007812-27.539062-5.488281-37.589844-15.449219v-.011719l-50.554687-50.546874c22.554687-11.578126 41.503906-28.105469 56.09375-48.316407.230469-.316406 4.769531-6.601562 12.089843-16.734375l53.351563 35.953125c6.808594 5.542969 12.238281 12.722657 15.699219 20.761719 1.601562 3.746094 5.960937 5.585938 9.851562 3.933594 3.792969-1.648438 5.570313-6.039063 3.929688-9.863282-7.332032-17.019531-19.140625-25.558593-20.261719-26.679687 0 0-.386719-.289063-.386719-.289063 0-.011718-.011718-.011718-.023437-.023437-.027344-.015625-10.890625-7.335937-10.917969-7.351563l11.648438-31.027343c5.15625-13.742188-4.523438-29.261719-20.75-29.261719h-10.464844c40.871094-56.582031 95.882812-132.738281 97.746094-135.316406.007812-.011719.011718-.019532.019531-.03125l16.65625-23.058594c6.757812-9.355469 2.929687-25.695312-11.375-48.574219zm-92.582031 221.980469c5.691406 0 8.207031 4.988281 6.707031 8.992188l-10.390625 27.679687-29.667969-19.992187c3.683594-5.101563 7.734375-10.707032 12.050781-16.679688zm91.796874-182.191406-11.519531 15.953125-143.933593-143.9375 15.953124-11.523438c1.21875-.882812 10.027344-1.507812 30.851563 11.328125-8 8.578125-7.769531 22.125.886719 30.40625 8.433594 8.070313 22.152344 7.78125 30.582031-.644531l3.472656-3.476563 2.90625 2.570313-3.667969 3.664063c-8.351562 8.351562-8.785156 21.597656-.996093 30.15625 8.519531 9.363281 22.792969 9.289062 31.335937.75l3.949219-3.949219 2.566406 2.90625-3.777343 3.78125c-8.539063 8.535156-8.613282 22.816406.75 31.335937 8.273437 7.535156 20.929687 7.375 29.304687-.191406 12.839844 20.828125 12.226563 29.640625 11.335937 30.871094zm0 0"/></svg>